<svg width="30" height="24" viewBox="0 0 30 24" fill="none" xmlns="http://www.w3.org/2000/svg">
<path d="M29.373 3.279C29.028 1.989 28.011 0.972 26.721 0.627C24.381 3.12924e-07 15 0 15 0C15 0 5.619 3.12924e-07 3.279 0.627C1.989 0.972 0.972 1.989 0.627 3.279C-4.47035e-08 5.619 0 12 0 12C0 12 -4.47035e-08 18.381 0.627 20.721C0.972 22.011 1.989 23.028 3.279 23.373C5.619 24 15 24 15 24C15 24 24.381 24 26.721 23.373C28.0125 23.028 29.028 22.011 29.373 20.721C30 18.381 30 12 30 12C30 12 30 5.619 29.373 3.279ZM12 15.897V8.103C12 7.5255 12.6255 7.1655 13.125 7.4535L19.875 11.3505C20.3745 11.6385 20.3745 12.3615 19.875 12.6495L13.125 16.5465C12.6255 16.836 12 16.4745 12 15.897Z" fill="#566474"/>
</svg>
